<?xml version="1.0" standalone="no"?>
<!DOCTYPE svg PUBLIC "-//W3C//DTD SVG 20010904//EN"
        "http://www.w3.org/TR/2001/REC-SVG-20010904/DTD/svg10.dtd">
<svg version="1.0" xmlns="http://www.w3.org/2000/svg"
     width="16.000000pt" height="16.000000pt" viewBox="0 0 16.000000 16.000000"
     preserveAspectRatio="xMidYMid meet">
    <metadata>
        Created by potrace 1.11, written by Peter Selinger 2001-2013
    </metadata>
    <g transform="translate(0.000000,16.000000) scale(0.004000,-0.004000)"
       fill="#000000" stroke="none">
        <path d="M1820 2814 c-69 -19 -134 -36 -145 -38 -11 -2 -101 -25 -200 -51 -99
-25 -259 -67 -355 -91 -96 -25 -218 -57 -270 -70 -52 -14 -104 -27 -115 -29
-11 -3 -54 -14 -95 -25 -41 -11 -96 -25 -122 -31 -25 -5 -53 -18 -61 -27 -12
-14 -299 -495 -359 -602 -11 -19 -25 -41 -31 -48 -6 -8 -6 -16 -1 -21 5 -4 90
-24 189 -45 99 -21 187 -39 195 -42 13 -3 15 -70 14 -529 -1 -289 -4 -528 -7
-531 -3 -3 -2 -18 3 -34 4 -15 4 -33 -1 -39 -6 -8 -5 -8 3 -1 19 15 31 12 24
-7 -6 -15 -5 -15 13 1 19 17 20 17 32 -2 10 -16 17 -18 30 -11 12 6 20 5 24
-1 4 -6 11 -8 16 -5 5 4 12 -1 15 -10 5 -11 10 -13 19 -5 10 8 16 7 23 -6 5
-10 17 -19 26 -20 10 -1 14 2 10 9 -5 8 -2 7 7 0 7 -7 24 -13 37 -13 13 0 30
-6 38 -14 8 -8 23 -12 35 -9 13 4 20 2 16 -4 -3 -5 0 -10 8 -10 8 0 12 3 10 7
-2 4 2 7 11 7 10 0 12 -7 8 -21 -6 -20 -5 -20 8 -2 14 17 15 17 32 0 15 -14
19 -15 27 -3 7 11 9 11 9 0 0 -8 6 -11 16 -7 8 3 13 2 9 -3 -7 -13 17 -20 36
-10 11 5 23 2 37 -11 14 -14 22 -16 25 -7 3 9 8 9 18 -2 9 -8 9 -11 2 -7 -9 5
-11 2 -6 -9 3 -9 9 -13 12 -8 9 15 43 25 35 11 -5 -8 -2 -9 10 -5 14 6 16 3
11 -16 -5 -19 -5 -20 5 -4 6 9 16 15 21 12 5 -4 7 -10 5 -14 -3 -4 5 -7 17 -8
12 0 16 1 10 4 -7 3 -13 9 -13 15 0 6 6 6 15 -2 8 -6 19 -9 24 -6 5 4 14 -2
20 -11 8 -14 11 -15 11 -3 1 8 6 4 11 -10 10 -24 11 -24 25 -6 14 19 14 19 15
-5 0 -21 1 -21 8 -5 7 17 8 17 24 1 10 -9 14 -22 10 -28 -3 -7 6 -1 22 13 16
14 25 19 21 13 -4 -8 -2 -13 6 -13 9 0 9 -3 -2 -10 -8 -5 -10 -10 -5 -10 6 0
16 5 23 12 9 9 12 9 12 -3 0 -12 2 -12 10 1 9 13 10 13 11 0 1 -8 1 -19 0 -23
-1 -5 3 -6 9 -2 6 3 8 10 6 14 -3 4 2 8 10 8 8 0 13 -5 11 -12 -3 -6 4 -12 14
-12 11 -1 17 2 14 7 -3 6 1 7 9 4 9 -3 13 -10 10 -15 -3 -5 3 -6 12 -2 11 4
15 3 10 -5 -4 -8 3 -10 24 -7 22 2 30 -1 30 -11 0 -8 5 -12 10 -9 6 4 8 11 5
16 -10 15 0 10 25 -11 13 -11 28 -20 33 -20 6 0 2 7 -9 15 -17 15 -16 15 12 1
17 -8 34 -12 38 -9 3 4 6 1 6 -5 0 -7 5 -12 11 -12 5 0 7 5 3 12 -4 7 -3 8 5
4 8 -5 9 -12 2 -19 -7 -9 -1 -12 20 -12 16 -1 29 4 29 10 0 5 4 4 9 -4 5 -8
18 -12 31 -8 13 3 23 0 26 -8 3 -7 12 -16 20 -19 8 -3 13 -2 10 3 -3 5 1 11 9
14 10 4 12 1 8 -10 -5 -13 -3 -14 18 -3 23 13 23 12 9 -5 -14 -17 -14 -18 10
-5 24 13 24 12 10 -5 -14 -17 -14 -18 10 -5 24 13 24 12 10 -5 -14 -17 -14
-18 8 -6 17 9 22 9 22 -1 0 -9 3 -9 12 0 7 7 17 12 23 12 5 0 3 -5 -5 -11 -12
-9 -11 -10 7 -6 17 4 20 1 16 -12 -5 -12 -3 -13 7 -4 10 9 17 7 34 -8 19 -19
21 -19 33 -3 12 17 13 17 13 1 0 -9 7 -17 16 -17 9 0 23 -8 31 -18 8 -9 12
-11 8 -5 -3 7 -1 21 5 30 10 17 10 16 8 -2 -3 -17 2 -20 35 -19 30 1 34 -1 21
-10 -13 -10 -11 -11 13 -10 15 1 34 3 41 3 7 1 10 6 6 13 -4 7 -3 8 5 4 9 -6
9 -11 1 -21 -8 -10 -8 -15 1 -21 7 -4 9 -3 6 3 -4 6 4 14 18 17 14 4 25 14 25
23 0 9 3 14 6 10 3 -3 17 6 30 20 13 14 24 21 24 14 0 -6 5 -11 11 -11 6 0 8
9 3 22 -6 21 -6 21 10 5 23 -22 25 -22 22 7 -2 16 2 23 13 22 9 0 15 5 13 12
-1 8 2 11 8 7 6 -3 8 -10 6 -14 -3 -4 1 -8 9 -8 7 0 12 8 10 18 -2 10 1 22 7
25 7 4 8 2 4 -4 -4 -7 -1 -12 9 -12 12 0 15 5 11 17 -4 10 -4 14 0 10 4 -4 14
-1 22 6 13 10 14 9 7 -2 -5 -10 -4 -12 3 -7 7 4 12 15 13 24 0 11 2 12 6 4 7
-19 23 -4 16 16 -6 15 -5 16 12 2 11 -9 16 -10 11 -2 -4 6 -3 12 1 12 5 0 15
-6 22 -12 11 -11 11 -9 1 10 -11 23 -11 23 12 11 20 -11 22 -11 10 3 -9 11
-10 18 -2 23 5 3 10 1 10 -4 0 -6 4 -11 10 -11 5 0 7 6 4 14 -3 8 0 17 7 22 7
4 10 3 5 -4 -3 -6 -1 -14 5 -18 7 -4 9 -3 6 3 -4 6 0 19 9 29 14 18 15 18 9
-4 -7 -23 -6 -23 14 -5 21 18 28 29 13 19 -5 -3 -9 1 -9 8 0 9 10 13 28 12 20
-2 25 2 21 13 -3 9 -1 12 6 7 7 -4 12 -2 12 3 0 6 5 11 11 11 5 0 7 -6 3 -12
-4 -7 2 -4 14 6 25 21 31 36 7 16 -10 -8 -15 -9 -15 -1 0 13 45 25 60 16 9 -5
9 -1 0 15 -7 12 -8 20 -3 17 6 -4 20 3 33 15 22 21 22 21 16 0 -4 -12 -2 -23
5 -28 7 -4 9 -3 6 4 -4 5 -4 18 -1 27 5 13 8 14 15 3 6 -9 9 -7 9 9 0 17 5 20
23 16 18 -4 19 -3 7 6 -8 6 -12 11 -7 12 4 1 12 3 17 4 6 1 15 3 21 4 5 0 7 6
3 13 -4 6 -3 8 4 5 14 -9 43 3 36 14 -3 5 4 9 15 9 11 0 23 5 27 12 5 7 3 8
-7 3 -12 -8 -12 -6 0 8 9 11 18 14 25 8 12 -10 60 22 48 33 -3 4 6 5 21 2 16
-3 25 -1 22 5 -4 5 -11 7 -16 4 -5 -3 -6 1 -3 9 7 18 24 22 24 6 0 -5 4 -10 9
-10 5 0 8 8 7 17 0 10 7 19 18 21 13 3 16 0 11 -9 -5 -7 -4 -10 3 -5 6 3 9 15
7 26 -3 17 -1 18 14 11 13 -7 18 -6 18 4 0 8 -5 11 -10 8 -6 -3 -7 -1 -3 5 4
6 6 269 6 585 l0 573 117 56 c65 31 138 65 163 76 124 57 302 140 306 145 3 2
-78 67 -178 143 -435 331 -414 317 -505 329 -15 2 -41 6 -58 9 -161 26 -224
37 -245 41 -14 3 -43 7 -65 10 -22 2 -50 6 -61 9 -22 4 -71 13 -134 22 -44 7
-63 10 -245 40 -82 14 -162 27 -177 29 -15 2 -53 9 -85 14 -32 6 -74 13 -93
16 -19 3 -59 10 -89 15 -69 12 -54 14 -201 -26z m1410 -2189 c0 -2 -6 -8 -13
-14 -10 -8 -14 -7 -14 2 0 8 6 14 14 14 7 0 13 -1 13 -2z m-1440 -409 c0 -3
-4 -8 -10 -11 -5 -3 -10 -1 -10 4 0 6 5 11 10 11 6 0 10 -2 10 -4z m340 -108
c0 -6 -6 -5 -15 2 -8 7 -15 14 -15 16 0 2 7 1 15 -2 8 -4 15 -11 15 -16z m65
-8 c3 -6 -1 -7 -9 -4 -18 7 -21 14 -7 14 6 0 13 -4 16 -10z"/>
        <path d="M510 544 c0 -8 5 -12 10 -9 6 4 8 11 5 16 -9 14 -15 11 -15 -7z"/>
        <path d="M579 528 c15 -21 31 -23 31 -6 0 6 -3 8 -7 5 -3 -4 -13 -1 -22 6 -14
11 -14 10 -2 -5z"/>
        <path d="M1010 416 c0 -2 8 -10 18 -17 15 -13 16 -12 3 4 -13 16 -21 21 -21
13z"/>
        <path d="M1225 349 c-4 -6 -5 -12 -2 -15 2 -3 7 2 10 11 7 17 1 20 -8 4z"/>
    </g>
</svg>
